<svg width="103" height="24" viewBox="0 0 103 24" fill="none" xmlns="http://www.w3.org/2000/svg">
    <path d="M46.397 14.7832C46.397 11.1623 44.2426 6.24689 37.7056 6.24689C31.5157 6.24689 29.0486 11.0592 29.0486 15.1198C29.0486 19.1853 31.853 23.9976 38.0478 23.9976C41.7214 23.9976 44.7498 22.1871 45.9637 19.2197L41.0369 17.7728C40.7291 18.9347 39.5867 19.4579 38.0454 19.4579C35.9944 19.4579 34.7953 18.3648 34.453 16.4512H46.3256C46.3626 16.0459 46.397 15.5693 46.397 14.7832ZM34.4555 13.1079C34.8322 11.0272 35.8934 10.2412 37.7056 10.2412C39.6556 10.2412 40.7193 11.6438 40.8202 13.1079H34.4555Z" fill="#1D005A"/>
    <path d="M58.5381 6.24688C56.2827 6.24688 54.4681 7.16807 53.4734 8.50194V0H47.8301V23.7249H53.4734V14.2354C53.4734 12.5306 54.6749 11.2336 56.3837 11.2336C58.0924 11.2336 59.2915 12.5306 59.2915 14.2354V23.7249H64.9397V12.904C64.9397 9.07922 62.4037 6.24688 58.5381 6.24688Z" fill="#1D005A"/>
    <path d="M95.0298 6.24688C93.0109 6.24688 91.573 6.89294 90.6496 7.88536V0H85.0063V23.7249H90.6496V22.2608C91.573 23.3883 93.1463 24 94.9264 24C99.8853 24 103 20.6174 103 15.1222C103 9.62702 99.8877 6.24688 95.0298 6.24688ZM93.9342 19.2197C91.7798 19.2197 90.3419 17.5812 90.3419 15.1198C90.3419 12.6633 91.7798 11.0248 93.9342 11.0248C96.059 11.0248 97.492 12.6633 97.492 15.1198C97.492 17.5836 96.0566 19.2197 93.9342 19.2197Z" fill="#1D005A"/>
    <path d="M69.81 13.1103C71.7097 13.1103 73.2497 11.5739 73.2497 9.67862C73.2497 7.78333 71.7097 6.24689 69.81 6.24689C67.9103 6.24689 66.3704 7.78333 66.3704 9.67862C66.3704 11.5739 67.9103 13.1103 69.81 13.1103Z" fill="#1D005A"/>
    <path d="M79.4913 6.3918C79.7941 6.08965 80.2865 6.08965 80.5894 6.3918L83.3347 9.1308C83.6375 9.43295 83.6375 9.92425 83.3347 10.2264L80.5894 12.9654C80.2865 13.2675 79.7941 13.2675 79.4913 12.9654L76.7459 10.2264C76.4431 9.92425 76.4431 9.43295 76.7459 9.1308L79.4913 6.3918Z" fill="#1D005A"/>
    <path d="M77.8342 15.1222C77.8342 17.5812 77.0808 19.2197 74.9264 19.2197C72.7695 19.2197 72.0186 17.5812 72.0186 15.1222H66.3728C66.3728 20.2096 69.5564 23.9976 74.9264 23.9976C80.2988 23.9976 83.48 20.2072 83.48 15.1222H77.8342Z" fill="#1D005A"/>
    <path d="M21.3544 6.24689C18.5106 6.24689 16.4251 7.64464 15.5018 9.14801C14.5761 7.26879 13.0347 6.24689 10.4027 6.24689C8.21134 6.24689 6.67002 7.20001 5.64576 8.56828V6.52201H0V23.7249H5.64822V14.1003C5.64822 12.1892 6.70695 10.9585 8.31475 10.9585C9.92747 10.9585 10.9837 12.1867 10.9837 14.1003V23.7249H16.632V14.1003C16.632 12.1892 17.6907 10.9585 19.2985 10.9585C20.9112 10.9585 21.9675 12.1867 21.9675 14.1003V23.7249H27.6157V12.2899C27.6182 9.11362 25.1166 6.24689 21.3544 6.24689Z" fill="#1D005A"/>
</svg>
